<svg xlink="http://www.w3.org/1999/xlink" viewBox="0 0 5000 5000" xmlns="http://www.w3.org/2000/svg" style="transform: scale(1);"><defs><filter id="goo"><feGaussianBlur in="SourceGraphic" stdDeviation="12.075" result="blur"></feGaussianBlur><feColorMatrix in="blur" type="matrix" values="1 0 0 0 0 0 1 0 0 0 0 0 1 0 0 0 0 0 19 -9" result="good"></feColorMatrix><feComposite in="SourceGraphic" in2="goo" operator="atop"></feComposite></filter><path d="M154,219C168,182 198,156 231,151C263,145 295,154 324,181C350,211 357,250 346,281C332,318 302,344 269,349C237,355 205,346 176,319C150,289 143,250 154,219z" id="P0"></path><path d="M202,436L110,119L436,202L202,436z" id="P1"></path><path d="M373,282L218,373L127,218L282,127L373,282z" id="P2"></path><path d="M166,402L79,217L228,77L407,176L369,377L166,402z" id="P3"></path><path d="M185,160L297,150L360,236L315,340L203,350L140,264L185,160z" id="P4"></path><path d="M173,129C222,101 278,101 319,125C359,147 386,186 393,241C394,297 367,347 327,371C278,399 222,399 181,375C141,353 114,314 107,259C106,203 133,153 173,129z" id="P5"></path><path d="M154,424L143,82L449,250L154,424z" id="P6"></path><path d="M147,299L201,147L353,201L299,353L147,299z" id="P7"></path><path d="M400,359L193,426L65,250L193,74L400,141L400,359z" id="P8"></path><path d="M372,339L231,400L113,314L128,161L269,100L387,186L372,339z" id="P9"></path><path d="M358,278C345,319 313,349 278,358C243,366 207,358 174,331C144,300 133,257 142,222C155,181 187,151 222,142C257,134 293,142 326,169C356,200 367,243 358,278z" id="P10"></path><path d="M221,402L131,151L397,202L221,402z" id="P11"></path><path d="M428,166L334,428L72,334L166,72L428,166z" id="P12"></path><path d="M351,388L149,388L87,197L250,79L413,197L351,388z" id="P13"></path><path d="M87,281L144,122L301,92L413,219L356,378L199,408L87,281z" id="P14"></path></defs><rect id="RECT" width="5000" height="5000" fill="#69859D"></rect><g id="group" fill="#FFFFFF" filter="url(#goo)"><use x="485" y="-154" href="#P0"></use><use x="-136" y="962" href="#P14"></use><use x="375" y="1820" href="#P9"></use><use x="105" y="2512" href="#P1"></use><use x="39" y="2676" href="#P8"></use><use x="190" y="3346" href="#P14"></use><use x="363" y="4384" href="#P3"></use><use x="462" y="4857" href="#P13"></use><use x="776" y="-117" href="#P13"></use><use x="942" y="567" href="#P14"></use><use x="615" y="1766" href="#P4"></use><use x="1017" y="1997" href="#P9"></use><use x="759" y="2910" href="#P13"></use><use x="687" y="3659" href="#P2"></use><use x="559" y="4636" href="#P5"></use><use x="1225" y="4735" href="#P4"></use><use x="1616" y="-85" href="#P12"></use><use x="1943" y="892" href="#P1"></use><use x="1816" y="1361" href="#P13"></use><use x="2087" y="1996" href="#P5"></use><use x="1998" y="3260" href="#P3"></use><use x="1600" y="3870" href="#P0"></use><use x="1341" y="4291" href="#P6"></use><use x="1509" y="4763" href="#P10"></use><use x="2635" y="240" href="#P9"></use><use x="2823" y="939" href="#P13"></use><use x="2617" y="1427" href="#P0"></use><use x="2655" y="2510" href="#P13"></use><use x="2595" y="3023" href="#P1"></use><use x="2280" y="3297" href="#P3"></use><use x="2446" y="4246" href="#P1"></use><use x="2340" y="5019" href="#P2"></use><use x="3407" y="292" href="#P6"></use><use x="3131" y="1055" href="#P1"></use><use x="3421" y="1548" href="#P13"></use><use x="3205" y="2041" href="#P10"></use><use x="3553" y="2758" href="#P3"></use><use x="3210" y="3952" href="#P2"></use><use x="3248" y="4374" href="#P2"></use><use x="2996" y="4730" href="#P5"></use><use x="4347" y="235" href="#P7"></use><use x="4411" y="754" href="#P0"></use><use x="4196" y="1188" href="#P1"></use><use x="3847" y="2260" href="#P7"></use><use x="3989" y="2721" href="#P5"></use><use x="3693" y="3780" href="#P13"></use><use x="4143" y="4134" href="#P11"></use><use x="4285" y="5072" href="#P6"></use><use x="5059" y="274" href="#P1"></use><use x="5065" y="746" href="#P8"></use><use x="5104" y="1838" href="#P2"></use><use x="4474" y="2569" href="#P8"></use><use x="4712" y="2739" href="#P0"></use><use x="4489" y="3410" href="#P12"></use><use x="5051" y="4504" href="#P6"></use><use x="5151" y="5085" href="#P4"></use></g></svg>